<svg width="114" height="19" viewBox="0 0 114 19" fill="none" xmlns="http://www.w3.org/2000/svg">
<path d="M19.625 0.55V18H16.125V5.825L11.65 18H8.6L4.125 5.875V18H0.6V0.55H4.875L10.175 13.675L15.375 0.55H19.625ZM29.4668 3.975C30.8168 3.975 32.0251 4.25833 33.0918 4.825C34.1751 5.39167 35.0251 6.21667 35.6418 7.3C36.2585 8.36667 36.5668 9.625 36.5668 11.075C36.5668 12.525 36.2585 13.7833 35.6418 14.85C35.0251 15.9167 34.1751 16.7417 33.0918 17.325C32.0251 17.8917 30.8168 18.175 29.4668 18.175C28.1168 18.175 26.9001 17.8917 25.8168 17.325C24.7501 16.7417 23.9085 15.9167 23.2918 14.85C22.6751 13.7833 22.3668 12.525 22.3668 11.075C22.3668 9.625 22.6751 8.36667 23.2918 7.3C23.9085 6.21667 24.7501 5.39167 25.8168 4.825C26.9001 4.25833 28.1168 3.975 29.4668 3.975ZM29.4668 7.025C28.4835 7.025 27.6501 7.375 26.9668 8.075C26.2835 8.75833 25.9418 9.75833 25.9418 11.075C25.9418 12.3917 26.2835 13.4 26.9668 14.1C27.6501 14.7833 28.4835 15.125 29.4668 15.125C30.4501 15.125 31.2835 14.7833 31.9668 14.1C32.6501 13.4 32.9918 12.3917 32.9918 11.075C32.9918 9.75833 32.6501 8.75833 31.9668 8.075C31.2835 7.375 30.4501 7.025 29.4668 7.025ZM47.558 3.95C49.158 3.95 50.433 4.475 51.383 5.525C52.333 6.575 52.808 8.05 52.808 9.95V18H49.308V10.35C49.308 9.25 49.0247 8.4 48.458 7.8C47.8913 7.18333 47.1163 6.875 46.133 6.875C45.133 6.875 44.333 7.2 43.733 7.85C43.133 8.5 42.833 9.43333 42.833 10.65V18H39.308V4.15H42.833V6.925C43.1997 5.99167 43.7997 5.26667 44.633 4.75C45.483 4.21667 46.458 3.95 47.558 3.95Z" fill="#7471FB"/>
<path d="M68.1346 18L65.4346 14.85C65.3012 15.1833 65.1846 15.4417 65.0846 15.625C64.7846 16.3917 64.2596 17.0083 63.5096 17.475C62.7596 17.9417 61.8846 18.175 60.8846 18.175C59.7679 18.175 58.7846 17.9417 57.9346 17.475C57.1012 17.0083 56.4596 16.375 56.0096 15.575C55.5596 14.7583 55.3346 13.8333 55.3346 12.8C55.3346 11.7833 55.5262 10.8917 55.9096 10.125C56.3096 9.35833 56.8429 8.76667 57.5096 8.35C58.1929 7.91667 58.9512 7.68333 59.7846 7.65L59.4846 7.2C59.1512 6.73333 58.8929 6.275 58.7096 5.825C58.5262 5.35833 58.4346 4.84167 58.4346 4.275C58.4346 3.55833 58.6179 2.89167 58.9846 2.275C59.3679 1.64167 59.9262 1.13333 60.6596 0.749999C61.4096 0.366665 62.3012 0.174999 63.3346 0.174999C64.8179 0.174999 65.9596 0.508332 66.7596 1.175C67.5762 1.84167 68.1012 2.7 68.3346 3.75C68.5012 4.25 68.5846 4.78333 68.5846 5.35L68.5596 5.825H65.2846C65.2846 5.40833 65.2679 5.125 65.2346 4.975C65.2179 4.375 65.0512 3.91667 64.7346 3.6C64.4179 3.26667 63.9762 3.1 63.4096 3.1C62.8929 3.1 62.4846 3.25 62.1846 3.55C61.8846 3.85 61.7346 4.21667 61.7346 4.65C61.7346 5.03333 61.8096 5.36667 61.9596 5.65C62.1096 5.93333 62.3596 6.28333 62.7096 6.7L71.6846 18H68.1346ZM60.9096 15.225C61.6262 15.225 62.2096 15.0083 62.6596 14.575C63.1262 14.125 63.3596 13.55 63.3596 12.85C63.3596 12.1167 63.0929 11.5083 62.5596 11.025C62.0429 10.5417 61.4262 10.3 60.7096 10.3C60.0262 10.3 59.4596 10.5083 59.0096 10.925C58.5762 11.3417 58.3596 11.9333 58.3596 12.7C58.3596 13.4667 58.6012 14.0833 59.0846 14.55C59.5846 15 60.1929 15.225 60.9096 15.225Z" fill="black"/>
<path d="M91.2709 3.95C92.9542 3.95 94.2792 4.475 95.2459 5.525C96.2292 6.55833 96.7209 8.03333 96.7209 9.95V18H93.2209V10.35C93.2209 9.28333 92.9459 8.46667 92.3959 7.9C91.8626 7.31667 91.1209 7.025 90.1709 7.025C89.1876 7.025 88.4042 7.33333 87.8209 7.95C87.2376 8.56667 86.9459 9.46667 86.9459 10.65V18H83.4459V10.35C83.4459 9.28333 83.1709 8.46667 82.6209 7.9C82.0876 7.31667 81.3459 7.025 80.3959 7.025C79.4126 7.025 78.6292 7.33333 78.0459 7.95C77.4626 8.56667 77.1709 9.46667 77.1709 10.65V18H73.6459V4.15H77.1709V6.775C77.5376 5.875 78.1126 5.18333 78.8959 4.7C79.6959 4.2 80.6209 3.95 81.6709 3.95C82.7876 3.95 83.7542 4.21667 84.5709 4.75C85.4042 5.28333 86.0292 6.05 86.4459 7.05C86.8792 6.1 87.5209 5.35 88.3709 4.8C89.2376 4.23333 90.2042 3.95 91.2709 3.95ZM113.093 10.55C113.093 10.9 113.051 11.3 112.968 11.75H102.818C102.868 12.9833 103.201 13.8917 103.818 14.475C104.434 15.0583 105.201 15.35 106.118 15.35C106.934 15.35 107.609 15.15 108.143 14.75C108.693 14.35 109.043 13.8083 109.193 13.125H112.918C112.734 14.0917 112.343 14.9583 111.743 15.725C111.143 16.4917 110.368 17.0917 109.418 17.525C108.484 17.9583 107.443 18.175 106.293 18.175C104.943 18.175 103.743 17.8917 102.693 17.325C101.643 16.7417 100.826 15.9167 100.243 14.85C99.6594 13.7833 99.3678 12.525 99.3678 11.075C99.3678 9.625 99.6594 8.36667 100.243 7.3C100.826 6.21667 101.643 5.39167 102.693 4.825C103.743 4.25833 104.943 3.975 106.293 3.975C107.659 3.975 108.851 4.25833 109.868 4.825C110.901 5.39167 111.693 6.175 112.243 7.175C112.809 8.15833 113.093 9.28333 113.093 10.55ZM109.543 10.2C109.593 9.06667 109.293 8.20833 108.643 7.625C108.009 7.04167 107.226 6.75 106.293 6.75C105.343 6.75 104.543 7.04167 103.893 7.625C103.243 8.20833 102.884 9.06667 102.818 10.2H109.543Z" fill="#4FC4CF"/>
</svg>
